<?xml version="1.0" ?>

<svg width="30" height="31" viewBox="0 0 30 31" fill="none" xmlns="http://www.w3.org/2000/svg">
<path d="M14.9922 30.2037C23.2722 30.2037 29.9845 23.4424 29.9845 15.1018C29.9845 6.76132 23.2722 0 14.9922 0C6.71226 0 0 6.76132 0 15.1018C0 23.4424 6.71226 30.2037 14.9922 30.2037Z" fill="#CED3D7"/>
<path d="M19.6459 9.39795C19.3723 9.39795 19.1099 9.50751 18.9164 9.70239C18.723 9.89728 18.6143 10.1616 18.6143 10.4372C18.6143 10.7128 18.723 10.9771 18.9164 11.1719C19.1099 11.3668 19.3723 11.4764 19.6459 11.4764C19.9205 11.4764 20.1841 11.3672 20.3793 11.1726C20.5746 10.9781 20.6858 10.7138 20.6887 10.4372C20.6887 10.2997 20.6617 10.1637 20.6091 10.0369C20.5566 9.91008 20.4796 9.79504 20.3826 9.6984C20.2856 9.60175 20.1706 9.52534 20.0441 9.47378C19.9177 9.42223 19.7823 9.39646 19.6459 9.39795Z" fill="#292A30"/>
<path d="M15.0588 10.7195C14.2 10.7173 13.3599 10.9717 12.6448 11.4507C11.9297 11.9296 11.3717 12.6116 11.0416 13.4101C10.7114 14.2087 10.6239 15.088 10.79 15.9367C10.9562 16.7854 11.3686 17.5652 11.9751 18.1777C12.5815 18.7902 13.3548 19.2077 14.1968 19.3773C15.0389 19.5469 15.912 19.461 16.7056 19.1305C17.4993 18.7999 18.1777 18.2396 18.655 17.5205C19.1324 16.8014 19.3871 15.9558 19.3871 15.0908C19.3842 13.9343 18.9276 12.8259 18.1168 12.007C17.3061 11.1882 16.2069 10.7255 15.0588 10.7195ZM15.0588 17.8807C14.5093 17.8807 13.972 17.7167 13.515 17.4094C13.0579 17.1021 12.7015 16.6653 12.4907 16.1541C12.2798 15.6429 12.2241 15.0803 12.3305 14.5372C12.4369 13.9941 12.7007 13.4949 13.0884 13.1027C13.4762 12.7104 13.9707 12.4428 14.5094 12.3334C15.0481 12.2241 15.6069 12.278 16.1152 12.4883C16.6236 12.6985 17.0587 13.0559 17.3656 13.5151C17.6725 13.9742 17.8375 14.5146 17.8397 15.0682C17.8397 15.8121 17.5471 16.5259 17.0259 17.053C16.5047 17.5801 15.7974 17.8777 15.0588 17.8807Z" fill="#292A30"/>
<path d="M18.5017 23.935H11.4822C10.0814 23.935 8.73805 23.3745 7.74758 22.3768C6.75711 21.3791 6.20068 20.026 6.20068 18.615V11.5441C6.20365 10.1341 6.76104 8.78264 7.75087 7.78558C8.7407 6.78851 10.0823 6.22704 11.4822 6.22406H18.5017C19.8996 6.23002 21.2383 6.79283 22.2258 7.78958C23.2132 8.78632 23.769 10.136 23.772 11.5441V18.615C23.772 20.024 23.2171 21.3754 22.229 22.3728C21.241 23.3702 19.9005 23.9321 18.5017 23.935V23.935ZM11.4822 7.89575C10.5205 7.89574 9.59812 8.27976 8.9171 8.96364C8.23608 9.64753 7.85201 10.5755 7.84905 11.5441V18.615C7.84905 19.5856 8.23182 20.5164 8.91316 21.2028C9.59451 21.8891 10.5186 22.2747 11.4822 22.2747H18.5017C19.4633 22.2717 20.3845 21.8848 21.0635 21.1988C21.7424 20.5128 22.1236 19.5836 22.1236 18.615V11.5441C22.1236 11.065 22.0299 10.5906 21.8479 10.1479C21.6659 9.70527 21.3991 9.30312 21.0628 8.96433C20.7265 8.62555 20.3272 8.35679 19.8878 8.17344C19.4483 7.99009 18.9774 7.89575 18.5017 7.89575H11.4822Z" fill="#292A30"/>
</svg>