<?xml version="1.0" encoding="utf-8"?>
<!-- Generator: Adobe Illustrator 27.0.0, SVG Export Plug-In . SVG Version: 6.00 Build 0)  -->
<svg version="1.1" id="Layer_1" xmlns="http://www.w3.org/2000/svg" xmlns:xlink="http://www.w3.org/1999/xlink" x="0px" y="0px"
	 viewBox="0 0 35.4 35.4" style="enable-background:new 0 0 35.4 35.4;" xml:space="preserve">
<style type="text/css">
	.st0{fill:#CED3D7;}
</style>
<g>
	<path class="st0" d="M17.7,0C7.9,0,0,7.9,0,17.7s7.9,17.7,17.7,17.7s17.7-7.9,17.7-17.7S27.5,0,17.7,0z M28.1,22.9
		c-0.3,0.9-1,1.7-1.9,1.9c-1.7,0.5-8.5,0.5-8.5,0.5s-6.8,0-8.5-0.5c-0.9-0.3-1.7-1-1.9-1.9c-0.5-1.7-0.5-5.2-0.5-5.2s0-3.5,0.5-5.2
		c0.3-0.9,1-1.7,1.9-1.9c1.7-0.5,8.5-0.5,8.5-0.5s6.8,0,8.5,0.5c0.9,0.3,1.7,1,1.9,1.9c0.5,1.7,0.5,5.2,0.5,5.2S28.6,21.2,28.1,22.9
		z"/>
	<polygon class="st0" points="15.5,21 21.2,17.7 15.5,14.4 	"/>
</g>
</svg>
